<?xml version="1.0" encoding="iso-8859-1"?>
<!-- Uploaded to: SVG Repo, www.svgrepo.com, Generator: SVG Repo Mixer Tools -->
<svg fill="#000000" height="800px" width="800px" version="1.1" id="Layer_1" xmlns="http://www.w3.org/2000/svg" xmlns:xlink="http://www.w3.org/1999/xlink" 
	 viewBox="0 0 496 496" xml:space="preserve">
			<path d="M240,360c0-17.648-14.352-32-32-32s-32,14.352-32,32s14.352,32,32,32S240,377.648,240,360z M208,376
				c-8.824,0-16-7.176-16-16c0-8.824,7.176-16,16-16c8.816,0,16,7.176,16,16C224,368.824,216.816,376,208,376z"/>
			<path d="M288,328c-17.648,0-32,14.352-32,32s14.352,32,32,32s32-14.352,32-32S305.648,328,288,328z M288,376
				c-8.824,0-16-7.176-16-16c0-8.824,7.176-16,16-16c8.816,0,16,7.176,16,16C304,368.824,296.816,376,288,376z"/>
			<path d="M456,32H144v-8c0-13.232-10.768-24-24-24H64C50.768,0,40,10.768,40,24v8C17.944,32,0,49.944,0,72v200
				c0,22.056,17.944,40,40,40h72v184h272V312h72c22.056,0,40-17.944,40-40V72C496,49.944,478.056,32,456,32z M56,24
				c0-4.416,3.584-8,8-8h56c4.416,0,8,3.584,8,8v8H56V24z M16,152h233.928c-1.216,6.488-1.928,13.16-1.928,20
				c0,6.84,0.712,13.512,1.928,20H16V152z M368,480H128V312h16v152h208V312h16V480z M307.104,388.32L288,401.048l-19.104-12.728
				l-13.28,26.552L262.24,448H240v-24c0-17.648-14.352-32-32-32s-32,14.352-32,32v24h-16V312h176v136h-22.24l6.624-33.128
				L307.104,388.32z M303.616,417.128L297.44,448h-18.88l-6.176-30.872l2.72-5.448l12.896,8.6l12.896-8.6L303.616,417.128z M224,424
				v24h-32v-24c0-8.824,7.176-16,16-16C216.816,408,224,415.176,224,424z M480,272c0,13.232-10.768,24-24,24H40
				c-13.232,0-24-10.768-24-24v-64h238.296c14.872,41.88,54.784,72,101.704,72c46.92,0,86.824-30.12,101.696-72H480V272z M264,172
				c0-50.728,41.272-92,92-92c50.728,0,92,41.272,92,92c0,50.728-41.272,92-92,92C305.272,264,264,222.728,264,172z M480,192
				h-17.936c1.224-6.488,1.936-13.16,1.936-20c0-6.84-0.712-13.512-1.936-20H480V192z M480,136h-22.304
				C442.824,94.12,402.912,64,356,64c-46.92,0-86.824,30.12-101.704,72H16V72c0-13.232,10.768-24,24-24h104h312
				c13.232,0,24,10.768,24,24V136z"/>
			<path d="M356,248c41.904,0,76-34.096,76-76s-34.096-76-76-76s-76,34.096-76,76S314.096,248,356,248z M356,112
				c33.088,0,60,26.912,60,60s-26.912,60-60,60s-60-26.912-60-60S322.912,112,356,112z"/>
			<path d="M356,144v-16c-24.256,0-44,19.744-44,44h16C328,156.56,340.56,144,356,144z"/>
			<path d="M48,112h88V64H48V112z M64,80h56v16H64V80z"/>
</svg>