<?xml version="1.0" standalone="no"?>
<!DOCTYPE svg PUBLIC "-//W3C//DTD SVG 20010904//EN"
 "http://www.w3.org/TR/2001/REC-SVG-20010904/DTD/svg10.dtd">
<svg version="1.0" xmlns="http://www.w3.org/2000/svg"
 width="200.000000pt" height="200.000000pt" viewBox="0 0 200.000000 200.000000"
 preserveAspectRatio="xMidYMid meet">

<g transform="translate(0.000000,200.000000) scale(0.100000,-0.100000)"
fill="#000000" stroke="none">
<path d="M372 1888 c-16 -16 -15 -43 1 -56 7 -6 37 -12 66 -14 l54 -3 44 -130
c23 -71 43 -134 43 -140 0 -5 -21 -19 -47 -29 -62 -26 -113 -73 -143 -133
l-25 -48 -3 -604 c-2 -444 0 -607 9 -617 17 -21 1241 -21 1258 0 9 10 11 173
9 617 l-3 604 -25 48 c-30 60 -81 107 -143 133 -26 10 -47 24 -47 29 0 6 19
69 43 140 l44 130 58 5 c65 6 89 26 69 58 -10 16 -53 17 -631 20 -473 2 -622
-1 -631 -10z m1048 -76 c0 -8 -71 -220 -85 -255 -7 -16 -30 -17 -338 -15
l-330 3 -44 130 c-23 71 -43 133 -43 137 0 4 189 8 420 8 231 0 420 -4 420 -8z
m-100 -412 l0 -60 -320 0 -320 0 0 60 0 60 320 0 320 0 0 -60z m-718 -173 l3
-223 37 -76 c45 -91 103 -147 196 -191 61 -29 76 -32 163 -32 90 0 99 2 171
37 91 45 147 103 191 196 l32 67 3 223 c3 200 5 222 21 222 27 0 87 -46 112
-87 l24 -38 3 -572 3 -573 -561 0 -561 0 3 573 3 572 24 38 c25 41 85 87 112
87 16 0 18 -22 21 -223z m358 -207 l0 -240 -27 6 c-93 23 -167 80 -214 166
-32 60 -34 68 -37 186 l-4 122 141 0 141 0 0 -240z m358 118 c-3 -110 -7 -128
-31 -176 -47 -89 -126 -153 -219 -176 l-28 -6 0 240 0 240 141 0 141 0 -4
-122z"/>
<path d="M772 568 c-17 -17 -17 -239 0 -256 17 -17 439 -17 456 0 17 17 17
239 0 256 -17 17 -439 17 -456 0z m388 -128 l0 -60 -160 0 -160 0 0 60 0 60
160 0 160 0 0 -60z"/>
<path d="M1372 568 c-25 -25 -7 -68 29 -68 29 0 44 27 31 55 -12 27 -40 33
-60 13z"/>
<path d="M1370 365 c-26 -32 13 -81 48 -59 22 14 27 41 12 59 -16 19 -44 19
-60 0z"/>
</g>
</svg>
