<?xml version="1.0" standalone="no"?>
<!DOCTYPE svg PUBLIC "-//W3C//DTD SVG 20010904//EN"
 "http://www.w3.org/TR/2001/REC-SVG-20010904/DTD/svg10.dtd">
<svg version="1.0" xmlns="http://www.w3.org/2000/svg"
 width="1600.000000pt" height="1600.000000pt" viewBox="0 0 1600.000000 1600.000000"
 preserveAspectRatio="xMidYMid meet">

<g transform="translate(0.000000,1600.000000) scale(0.100000,-0.100000)"
fill="#000000" stroke="none">
<path d="M9960 14690 c-1430 -119 -3125 -944 -4735 -2305 -512 -432 -1126
-1042 -1570 -1560 -662 -770 -1208 -1576 -1615 -2380 -640 -1267 -884 -2439
-695 -3335 31 -146 129 -459 198 -634 60 -152 235 -504 327 -656 267 -444 596
-860 961 -1215 680 -661 1650 -1128 2639 -1270 289 -41 412 -50 735 -49 325 0
452 8 750 50 1133 159 2278 673 3440 1543 554 415 1034 842 1615 1437 1107
1133 1896 2306 2323 3455 188 505 300 982 359 1534 20 188 17 811 -6 1000 -93
791 -330 1470 -739 2120 -266 422 -588 782 -1032 1154 -258 217 -586 447 -850
597 -260 147 -586 290 -820 358 -304 88 -433 118 -615 141 -148 19 -521 27
-670 15z m500 -640 c582 -51 982 -285 1189 -697 176 -351 225 -826 143 -1398
l-17 -120 -290 -1 c-354 -1 -531 -19 -898 -94 -764 -154 -1629 -519 -2448
-1033 -855 -535 -1626 -1223 -2265 -2022 -906 -1131 -1520 -2454 -1673 -3601
-39 -291 -47 -540 -28 -854 2 -24 -2 -26 -98 -42 -487 -83 -992 -53 -1315 78
-493 199 -755 587 -821 1213 -15 146 -6 524 16 686 71 520 233 1061 488 1635
1085 2441 3661 4933 6085 5886 711 280 1402 410 1932 364z m2150 -1054 c152
-130 421 -403 525 -534 751 -944 1066 -2065 915 -3257 -143 -1124 -695 -2293
-1641 -3475 -327 -408 -605 -717 -1024 -1135 -747 -747 -1408 -1280 -2140
-1727 -1253 -764 -2501 -1070 -3675 -902 -645 92 -1269 335 -1810 705 -304
208 -568 453 -850 789 -105 126 -106 121 2 99 326 -67 744 -76 1133 -23 1345
182 2920 971 4400 2203 666 554 1320 1214 1871 1886 1552 1893 2363 3945 2119
5359 -14 78 -28 152 -32 166 -7 28 1 22 207 -154z m-1005 -1808 c14 -14 -132
-416 -250 -694 -595 -1390 -1708 -2858 -3070 -4050 -960 -839 -1999 -1502
-2974 -1899 -179 -73 -464 -175 -488 -175 -14 0 -15 26 -10 248 9 372 60 681
183 1100 415 1410 1402 2840 2671 3869 1113 904 2456 1508 3558 1602 115 10
370 9 380 -1z"/>
<path d="M8930 13406 c-184 -55 -338 -170 -449 -335 -21 -31 -55 -81 -76 -111
-101 -147 -325 -696 -500 -1230 -68 -208 -81 -235 -136 -284 -67 -61 -120 -81
-219 -81 -70 0 -94 5 -135 25 -206 101 -244 369 -73 527 24 22 65 47 91 56 26
10 68 24 94 33 102 36 160 129 151 239 -9 113 -91 205 -195 221 -94 14 -268
-48 -399 -141 -110 -79 -208 -203 -263 -332 -16 -37 -48 -99 -70 -138 -116
-197 -281 -702 -435 -1325 -31 -124 -65 -244 -76 -267 -29 -63 -85 -119 -148
-150 -49 -24 -69 -28 -142 -28 -100 1 -159 24 -223 88 -93 93 -120 245 -64
360 34 68 108 139 170 160 26 9 68 24 94 33 122 44 183 176 139 302 -48 134
-163 186 -319 143 -198 -54 -352 -169 -470 -353 -278 -430 -415 -938 -472
-1748 -27 -393 -38 -443 -118 -523 -122 -122 -330 -123 -450 -3 -110 110 -127
291 -37 414 16 23 60 64 98 91 89 65 117 113 117 201 -1 73 -23 127 -76 179
-50 50 -87 65 -159 66 -53 0 -75 -6 -117 -29 -173 -95 -314 -279 -372 -486
-46 -166 -77 -595 -68 -960 4 -135 20 -425 38 -645 35 -455 35 -554 -4 -638
-54 -118 -142 -178 -272 -185 -65 -3 -91 0 -138 18 -204 77 -263 344 -114 515
65 74 81 110 81 180 0 74 -25 127 -88 182 -65 57 -138 75 -215 53 -113 -32
-251 -213 -313 -410 -20 -65 -23 -96 -23 -225 0 -138 2 -157 28 -237 43 -129
105 -229 206 -328 97 -95 190 -153 316 -196 66 -22 104 -28 210 -32 159 -6
252 14 390 82 209 104 355 283 416 512 35 130 37 451 5 894 -35 498 -35 492
-17 486 9 -3 48 -17 88 -31 197 -69 392 -54 603 47 94 45 114 61 200 147 193
195 223 288 270 831 25 284 54 528 82 670 11 58 21 107 23 108 2 2 34 -20 72
-49 79 -61 200 -121 293 -146 89 -24 299 -24 390 1 155 41 330 153 420 267
101 128 132 203 205 499 66 263 131 495 177 633 l34 98 19 -21 c61 -68 220
-157 342 -192 102 -30 303 -32 403 -5 159 44 321 148 420 270 73 90 112 171
181 378 51 153 170 491 194 550 5 13 17 6 62 -37 160 -154 372 -234 588 -221
121 8 194 26 300 76 228 107 388 313 442 565 12 58 13 81 3 125 -39 178 -284
242 -409 106 -37 -41 -46 -60 -71 -162 -6 -22 -25 -63 -43 -89 -140 -209 -449
-184 -555 45 -21 45 -26 71 -26 131 1 92 24 149 89 219 49 53 107 82 197 101
142 29 219 164 177 313 -13 49 -73 115 -124 138 -55 25 -151 24 -245 -5z"/>
<path d="M11890 8951 c-53 -16 -90 -43 -145 -103 -103 -114 -174 -259 -199
-408 -52 -314 -48 -507 21 -1175 29 -281 37 -392 37 -565 l1 -215 -28 -61
c-57 -124 -152 -185 -299 -192 -108 -5 -129 0 -177 43 -58 53 -84 121 -89 237
-7 149 34 299 105 382 69 82 82 178 35 267 -45 88 -156 149 -245 135 -59 -10
-94 -31 -189 -119 -263 -240 -407 -544 -437 -926 -14 -167 1 -342 45 -561 45
-219 55 -389 30 -503 -23 -102 -75 -175 -151 -213 -50 -24 -63 -26 -138 -22
-128 7 -220 66 -274 176 -24 49 -28 69 -28 142 1 99 20 145 92 223 59 63 83
118 83 191 0 137 -102 236 -244 236 -65 0 -112 -22 -174 -83 -219 -213 -324
-596 -397 -1457 -21 -245 -41 -285 -178 -357 -46 -25 -63 -28 -147 -28 -80 0
-102 4 -138 23 -66 35 -119 88 -149 150 -24 49 -28 69 -28 142 1 99 20 145 90
221 60 64 87 121 87 183 1 95 -59 188 -147 227 -52 24 -138 24 -190 0 -46 -20
-219 -202 -307 -322 -220 -299 -386 -725 -489 -1255 -25 -130 -49 -185 -109
-245 -119 -119 -319 -119 -438 0 -74 75 -97 129 -97 231 1 99 20 145 90 221
60 64 87 121 87 183 1 134 -109 246 -242 246 -77 0 -124 -25 -201 -107 -114
-121 -183 -262 -209 -426 -15 -88 -8 -225 13 -302 8 -27 20 -71 28 -97 17 -62
1 -179 -33 -246 -30 -58 -101 -114 -167 -131 -175 -45 -227 -271 -91 -403 87
-84 187 -87 347 -9 147 72 253 172 320 304 19 38 28 47 41 41 263 -117 555
-93 779 65 190 135 304 316 348 558 33 177 144 583 159 583 2 0 35 -32 73 -71
156 -164 353 -249 574 -249 351 0 671 226 763 540 9 30 28 156 41 280 14 124
27 235 30 247 l5 23 54 -30 c56 -32 166 -72 229 -84 39 -7 44 -15 26 -48 -6
-11 -11 -46 -11 -78 0 -124 96 -224 228 -237 77 -8 145 27 229 120 129 143
215 276 295 454 160 359 192 646 115 1044 -15 74 -29 144 -32 157 -5 21 3 18
70 -28 41 -28 112 -65 158 -82 82 -32 87 -32 249 -32 150 0 173 3 255 28 295
90 493 303 565 608 39 168 37 284 -15 808 -38 396 -37 363 -12 356 172 -51
313 -62 447 -37 207 40 408 172 515 340 83 132 115 241 115 402 0 127 -31 268
-82 369 -54 107 -146 153 -256 129 -106 -22 -185 -103 -198 -200 -4 -34 1 -67
25 -140 57 -177 38 -283 -64 -361 -89 -68 -217 -89 -324 -53 -69 22 -151 99
-182 167 -17 39 -23 71 -23 123 -1 98 24 161 91 236 67 76 83 111 83 186 0
161 -151 279 -300 234z"/>
</g>
</svg>
